# xmcd
#
# Track frame offsets:
#  150
#  23175
#  49200
#  65625
#  94125
#  110587
#  135637
#  158062
#  172275
#  189487
#
# Disc length: 2760 seconds
#
# Revision: 3
# Processed by: cddbd v1.5.1PL2 Copyright (c) Steve Scherf et al.
# Submitted via: Collectorz.com_Music_Collector 6.9
#
DISCID=8e0ac60a
DTITLE=Johnny Adams - Room With A View Of The Blues
DYEAR=1988
DGENRE=New Orleans Blues
TTITLE0=Room With a View
TTITLE1=I Don't Want To Do Wrong
TTITLE2=Not Trustworthy (A Lyin' Woman)
TTITLE3=Neither One of Us (Wants To Be the First To Say Goodbye)
TTITLE4=How Wrong Can a Good Man Be
TTITLE5=Body and Fender Man
TTITLE6=I Owe You
TTITLE7=Wish I'd Never Loved You at All
TTITLE8=The Hunt is On
TTITLE9=A World I Never Made
EXTD=
EXTT0=
EXTT1=
EXTT2=
EXTT3=
EXTT4=
EXTT5=
EXTT6=
EXTT7=
EXTT8=
EXTT9=
PLAYORDER=
